<svg id="Слой_1" data-name="Слой 1" xmlns="http://www.w3.org/2000/svg" width="32.96" height="32.96" viewBox="0 0 32.96 32.96"><defs><style>.cls-1{fill:#6aa941}.cls-2{fill:#fff}</style></defs><path class="cls-2" d="M11.42 9.34h.44a.55.55 0 0 1 .47.22 5 5 0 0 1 .27.51c.41 1 .78 1.89 1.18 2.83a.81.81 0 0 1 0 .61 5.16 5.16 0 0 1-1 1.3.54.54 0 0 0 0 .77 10.05 10.05 0 0 0 3.71 3.81c.49.27 1 .49 1.5.71a.49.49 0 0 0 .66-.15c.39-.49.81-1 1.18-1.47s.42-.4.88-.15l1.43.64 1.69.83a.6.6 0 0 1 .37.59 4.7 4.7 0 0 1-.32 1.53 1.9 1.9 0 0 1-.71.61 4.79 4.79 0 0 1-1.72 1 4.72 4.72 0 0 1-1.4.12 6.12 6.12 0 0 1-1.94-.37 12.77 12.77 0 0 1-4.32-2.45 17.15 17.15 0 0 1-2.9-3c-.44-.61-.89-1.23-1.3-1.89a6 6 0 0 1-.86-2.19 4.37 4.37 0 0 1 1.16-3.87 1.6 1.6 0 0 1 1-.52h.66z" transform="translate(-.02 -.02)"/></svg>