<svg xmlns="http://www.w3.org/2000/svg" width="170.5" height="42.928" viewBox="0 0 170.5 42.928"><path d="M154.273 20.231h15.932C169.58 9.516 161.02.927 150.276.303v15.931c0 2.211 1.786 3.997 3.97 3.997h.027zm-6.462-3.997V.303c-10.715.624-19.305 9.184-19.928 19.928h15.931a3.993 3.993 0 0 0 3.997-3.997zm-3.969 6.463H127.91c.625 10.715 9.186 19.305 19.928 19.928v-15.93a3.993 3.993 0 0 0-3.996-3.998zm26.361 0h-15.931c-2.211 0-3.969 1.787-3.969 3.998v15.93c10.715-.623 19.304-9.184 19.928-19.928h-.028zM13.108 9.402c-1.274-1.333-2.438-1.701-3.657-1.701-3.57 0-5.951 2.75-5.951 6.181 0 3.685 2.381 6.435 5.951 6.435 1.391 0 2.75-.624 3.885-2.098l2.551 1.813c-1.559 2.155-3.911 3.09-6.463 3.09-5.329 0-9.155-3.628-9.155-9.042 0-5.556 3.826-9.185 9.155-9.185 2.353 0 4.365.766 6.065 2.75L13.08 9.402h.028zm13.095-4.507c5.414-.085 9.213 3.515 9.213 9.071 0 5.414-3.826 9.042-9.213 9.126-5.328 0-9.156-3.627-9.156-9.042 0-5.557 3.828-9.186 9.156-9.186v.031zm.029 15.421c3.6 0 5.98-2.75 5.98-6.435 0-3.458-2.381-6.181-5.98-6.181-3.57 0-5.953 2.75-5.953 6.181 0 3.685 2.381 6.435 5.953 6.435zm12.19-14.968h4.705l4.619 12.133 4.678-12.133h4.649v17.319h-2.92V8.268h-.056l-5.274 14.399H46.67L41.426 8.268h-.057v14.399h-2.947zm22.592 0h5.839c3.346 0 6.378 1.163 6.378 5.018 0 4.365-3.26 5.13-6.916 5.13h-2.211v7.171h-3.09V5.348zm4.932 7.513c1.757 0 4.024-.085 4.024-2.438 0-2.126-2.041-2.41-3.686-2.41h-2.211v4.876h1.871l.002-.028zm13.833-7.513h2.664l7.455 17.319h-3.516L84.768 18.7h-7.512l-1.56 3.967h-3.458l7.541-17.319zm3.911 10.716l-2.664-7.059-2.722 7.059h5.386zm16.64-7.002c-.652-.936-1.844-1.36-3.033-1.36-1.418 0-2.834.624-2.834 2.239 0 3.487 8.22 1.502 8.22 7.653 0 3.714-2.947 5.528-6.351 5.528-2.153 0-4.252-.652-5.668-2.353l2.323-2.269c.767 1.162 2.041 1.814 3.431 1.814 1.418 0 3.033-.794 3.033-2.381 0-3.798-8.222-1.616-8.222-7.795 0-3.571 3.175-5.244 6.379-5.244 1.813 0 3.628.511 4.96 1.786l-2.238 2.382zm14.06 0c-.651-.936-1.843-1.36-3.033-1.36-1.417 0-2.834.624-2.834 2.239 0 3.487 8.222 1.502 8.222 7.653 0 3.714-2.949 5.528-6.351 5.528-2.154 0-4.252-.652-5.67-2.353l2.323-2.269c.767 1.162 2.07 1.814 3.432 1.814 1.417 0 3.033-.794 3.033-2.381 0-3.798-8.221-1.616-8.221-7.795 0-3.571 3.174-5.244 6.377-5.244 1.813 0 3.629.511 4.961 1.786l-2.239 2.382zM8.176 32.306c-.596-.766-1.559-1.189-2.522-1.189-2.354 0-3.884 1.871-3.884 4.252 0 2.184 1.445 4.055 3.884 4.055 1.19 0 2.099-.539 2.722-1.391l1.189.908c-.313.424-1.559 1.813-3.939 1.813-3.315 0-5.356-2.777-5.356-5.385 0-3.23 2.211-5.557 5.442-5.557 1.359 0 2.806.51 3.656 1.617l-1.191.906v-.029h-.001zm2.947-2.238h6.746V31.4h-5.328v3.09h4.961v1.332h-4.961v3.343h5.584v1.332h-7.002zm8.873 0h3.656c2.664 0 3.346 1.615 3.346 2.92 0 1.332-.992 2.578-2.553 2.75l2.948 4.762h-1.757L23 35.907h-1.588v4.592h-1.418V30.068h.002zm1.418 4.591h1.842c1.104 0 2.238-.256 2.238-1.672 0-1.418-1.134-1.674-2.238-1.674h-1.842v3.346zm10.687-4.591h1.274L37.826 40.5H36.18l-1.048-2.58h-4.961L29.15 40.5h-1.645l4.596-10.432zm2.522 6.603l-1.957-4.789h-.027l-1.984 4.789h3.968zm4.309-6.603h2.126l3.315 7.879h.058l3.288-7.879h2.097v10.429h-1.417v-8.588h-.028l-3.515 8.588h-.963l-3.516-8.588h-.028v8.588h-1.417zm13.295 0h1.417v10.429h-1.417zm11.224 2.238c-.596-.766-1.56-1.189-2.522-1.189-2.353 0-3.884 1.871-3.884 4.252 0 2.184 1.445 4.055 3.884 4.055 1.19 0 2.098-.539 2.721-1.391l1.19.908c-.312.424-1.56 1.813-3.939 1.813-3.316 0-5.357-2.777-5.357-5.385 0-3.23 2.211-5.557 5.442-5.557 1.36 0 2.808.51 3.656 1.617l-1.19.906v-.029h-.001zm6.889-2.238h3.656c2.664 0 3.344 1.615 3.344 2.92 0 1.303-.68 2.918-3.344 2.918h-2.24v4.592H70.34v-10.43zm1.416 4.591H73.6c1.134 0 2.238-.256 2.238-1.672 0-1.418-1.104-1.674-2.238-1.674h-1.844v3.346zm6.52.623c0-3.09 2.269-5.471 5.442-5.471s5.443 2.381 5.443 5.471-2.24 5.471-5.443 5.471c-3.175 0-5.442-2.381-5.442-5.471zm9.355 0c0-2.295-1.53-4.139-3.94-4.139-2.381 0-3.938 1.871-3.938 4.139 0 2.297 1.559 4.168 3.938 4.168 2.381 0 3.94-1.873 3.94-4.168zm2.75 0c0-3.09 2.238-5.471 5.441-5.471 3.176 0 5.442 2.381 5.442 5.471s-2.239 5.471-5.442 5.471c-3.174 0-5.441-2.381-5.441-5.471zm9.354 0c0-2.295-1.56-4.139-3.94-4.139-2.379 0-3.939 1.871-3.939 4.139 0 2.297 1.531 4.168 3.939 4.168 2.381 0 3.94-1.873 3.94-4.168zm3.402-5.214h1.417v9.097h4.762v1.332h-6.179zm7.795 8.248c.511.766 1.359 1.135 2.211 1.135.936 0 2.068-.596 2.068-1.729 0-2.41-5.131-.908-5.131-4.99 0-1.219 1.021-2.918 3.545-2.918 1.133 0 2.211.227 3.004 1.189l-1.135 1.049c-.367-.539-1.049-.906-1.842-.906-1.561 0-2.041.936-2.041 1.586 0 2.637 5.131 1.049 5.131 4.82 0 2.012-1.615 3.23-3.629 3.23-1.332 0-2.607-.453-3.316-1.445l1.162-.992-.027-.029z" fill="#FFF"/></svg>