<svg xmlns="http://www.w3.org/2000/svg" width="170.5" height="42.928" viewBox="99.388 78.267 170.5 42.928"><path fill="#FDC400" d="M253.71 98.843h15.931c-.624-10.715-9.185-19.304-19.928-19.928v15.931c0 2.211 1.786 3.997 3.969 3.997h.028z"/><path fill="#0060A6" d="M247.247 94.846V78.915c-10.715.624-19.304 9.184-19.928 19.928h15.931a3.993 3.993 0 0 0 3.997-3.997zm-3.968 6.463h-15.931c.624 10.715 9.185 19.304 19.928 19.928v-15.931a3.993 3.993 0 0 0-3.997-3.997zm26.362 0H253.71c-2.211 0-3.969 1.786-3.969 3.997v15.931c10.715-.624 19.304-9.185 19.928-19.928h-.028z"/><path d="M112.545 88.014c-1.275-1.333-2.438-1.701-3.657-1.701-3.571 0-5.952 2.75-5.952 6.18 0 3.685 2.381 6.435 5.952 6.435 1.39 0 2.75-.624 3.884-2.098l2.551 1.814c-1.559 2.154-3.911 3.09-6.463 3.09-5.329 0-9.155-3.628-9.155-9.042 0-5.556 3.826-9.185 9.155-9.185 2.353 0 4.365.766 6.066 2.75l-2.409 1.757h.028zm13.096-4.507c5.414-.085 9.213 3.515 9.213 9.071 0 5.414-3.827 9.042-9.213 9.127-5.329 0-9.156-3.628-9.156-9.042 0-5.556 3.827-9.185 9.156-9.185v.029zm.028 15.421c3.6 0 5.981-2.75 5.981-6.435 0-3.458-2.382-6.18-5.981-6.18-3.571 0-5.953 2.75-5.953 6.18 0 3.685 2.382 6.435 5.953 6.435zm12.19-14.968h4.705l4.62 12.133 4.678-12.133h4.648v17.32h-2.92v-14.4h-.057l-5.272 14.4h-2.154l-5.244-14.4h-.057v14.4h-2.947zm22.591 0h5.839c3.346 0 6.378 1.163 6.378 5.018 0 4.365-3.26 5.13-6.916 5.13h-2.211v7.172h-3.09V83.96zm4.933 7.513c1.757 0 4.024-.085 4.024-2.438 0-2.126-2.041-2.41-3.685-2.41h-2.211v4.876h1.871v-.028zm13.833-7.513h2.664l7.455 17.32h-3.515l-1.616-3.968h-7.512l-1.559 3.968h-3.458l7.541-17.32zm3.911 10.716l-2.664-7.059-2.722 7.059h5.386zm16.64-7.002c-.652-.935-1.843-1.36-3.033-1.36-1.417 0-2.834.624-2.834 2.239 0 3.487 8.22 1.502 8.22 7.653 0 3.714-2.947 5.528-6.35 5.528-2.154 0-4.252-.652-5.669-2.353l2.324-2.268c.766 1.162 2.041 1.814 3.43 1.814 1.418 0 3.033-.794 3.033-2.381 0-3.798-8.221-1.616-8.221-7.795 0-3.571 3.175-5.244 6.379-5.244 1.813 0 3.628.511 4.96 1.786l-2.239 2.381zm14.059 0c-.651-.935-1.842-1.36-3.033-1.36-1.417 0-2.834.624-2.834 2.239 0 3.487 8.221 1.502 8.221 7.653 0 3.714-2.948 5.528-6.35 5.528-2.154 0-4.252-.652-5.67-2.353l2.324-2.268c.766 1.162 2.069 1.814 3.431 1.814 1.417 0 3.033-.794 3.033-2.381 0-3.798-8.221-1.616-8.221-7.795 0-3.571 3.175-5.244 6.378-5.244 1.813 0 3.628.511 4.96 1.786l-2.239 2.381zm-106.213 23.244c-.596-.765-1.559-1.19-2.522-1.19-2.354 0-3.884 1.871-3.884 4.252 0 2.183 1.445 4.054 3.884 4.054 1.19 0 2.098-.539 2.721-1.389l1.19.907c-.312.425-1.559 1.814-3.939 1.814-3.316 0-5.357-2.778-5.357-5.386 0-3.231 2.211-5.556 5.442-5.556 1.36 0 2.806.51 3.656 1.616l-1.19.907v-.029zm2.948-2.239h6.746v1.332h-5.329v3.09h4.961v1.332h-4.961v3.345h5.584v1.332h-7.001zm8.872 0h3.657c2.664 0 3.345 1.616 3.345 2.92 0 1.332-.992 2.579-2.552 2.75l2.948 4.762h-1.757l-2.637-4.592h-1.587v4.592h-1.418v-10.432zm1.418 4.592h1.842c1.105 0 2.239-.255 2.239-1.672 0-1.417-1.134-1.673-2.239-1.673h-1.842v3.345zm10.686-4.592h1.275l4.45 10.432h-1.645l-1.048-2.58h-4.961l-1.021 2.58h-1.645l4.595-10.432zm2.523 6.604l-1.956-4.79h-.028l-1.984 4.79h3.968zm4.308-6.604h2.126l3.317 7.88h.056l3.289-7.88h2.097v10.431h-1.417v-8.589h-.028l-3.515 8.589h-.964l-3.515-8.589h-.029v8.589h-1.417zm13.295 0h1.417v10.431h-1.417zm11.225 2.239c-.595-.765-1.559-1.19-2.522-1.19-2.353 0-3.884 1.871-3.884 4.252 0 2.183 1.446 4.054 3.884 4.054 1.19 0 2.098-.539 2.721-1.389l1.191.907c-.312.425-1.56 1.814-3.94 1.814-3.316 0-5.357-2.778-5.357-5.386 0-3.231 2.211-5.556 5.442-5.556 1.36 0 2.807.51 3.656 1.616l-1.19.907v-.029zm6.889-2.239h3.656c2.665 0 3.345 1.616 3.345 2.92 0 1.304-.68 2.919-3.345 2.919h-2.239v4.592h-1.417v-10.431zm1.417 4.592h1.843c1.134 0 2.239-.255 2.239-1.672 0-1.417-1.105-1.673-2.239-1.673h-1.843v3.345zm6.519.624c0-3.09 2.268-5.471 5.442-5.471s5.443 2.381 5.443 5.471-2.24 5.471-5.443 5.471c-3.174-.001-5.442-2.382-5.442-5.471zm9.355 0c0-2.296-1.53-4.139-3.94-4.139-2.381 0-3.939 1.871-3.939 4.139 0 2.296 1.559 4.167 3.939 4.167 2.381 0 3.94-1.872 3.94-4.167zm2.75 0c0-3.09 2.239-5.471 5.442-5.471 3.175 0 5.442 2.381 5.442 5.471s-2.239 5.471-5.442 5.471c-3.175-.001-5.442-2.382-5.442-5.471zm9.354 0c0-2.296-1.56-4.139-3.94-4.139s-3.94 1.871-3.94 4.139c0 2.296 1.531 4.167 3.94 4.167 2.381 0 3.94-1.872 3.94-4.167zm3.401-5.216h1.417v9.099h4.763v1.332h-6.18zm7.795 8.249c.511.765 1.36 1.134 2.211 1.134.936 0 2.069-.595 2.069-1.729 0-2.409-5.131-.907-5.131-4.989 0-1.219 1.021-2.919 3.544-2.919 1.134 0 2.211.227 3.004 1.19l-1.134 1.049c-.368-.539-1.049-.907-1.842-.907-1.56 0-2.041.936-2.041 1.587 0 2.636 5.131 1.049 5.131 4.819 0 2.013-1.616 3.231-3.629 3.231-1.332 0-2.607-.453-3.316-1.445l1.162-.992-.028-.029z"/></svg>